<?xml version="1.0" standalone="no"?>
<!DOCTYPE svg PUBLIC "-//W3C//DTD SVG 20010904//EN"
 "http://www.w3.org/TR/2001/REC-SVG-20010904/DTD/svg10.dtd">
<svg version="1.0" xmlns="http://www.w3.org/2000/svg"
 width="170.000000pt" height="82.000000pt" viewBox="0 0 170.000000 82.000000"
 preserveAspectRatio="xMidYMid meet">

<g transform="translate(0.000000,82.000000) scale(0.100000,-0.100000)"
fill="#000000" stroke="none">
<path d="M0 408 l0 -412 53 50 c117 112 638 613 715 688 l82 81 71 -72 72 -71
-62 -57 c-33 -32 -61 -66 -61 -75 0 -10 27 -41 60 -70 l60 -52 53 47 c28 27
59 54 67 62 12 11 8 20 -35 65 -28 29 78 -71 235 -222 157 -151 309 -297 338
-324 l52 -50 0 412 0 412 -850 0 -850 0 0 -412z"/>
<path d="M782 737 l-62 -63 65 -64 65 -64 65 64 65 64 -62 63 c-34 35 -65 63
-68 63 -3 0 -34 -28 -68 -63z"/>
<path d="M640 601 l-64 -58 63 -59 c35 -33 67 -60 71 -62 5 -2 37 24 72 57
l63 60 -60 60 c-33 34 -64 61 -70 61 -5 -1 -39 -27 -75 -59z"/>
<path d="M438 406 c-71 -68 -128 -127 -128 -132 0 -11 112 -124 123 -124 12 0
127 111 127 123 0 5 -28 36 -62 69 l-63 60 70 -61 70 -61 65 66 65 65 -65 60
c-35 32 -67 59 -70 59 -3 -1 -62 -56 -132 -124z"/>
<path d="M782 467 l-62 -63 65 -64 65 -64 65 64 65 64 -62 63 c-34 35 -65 63
-68 63 -3 0 -34 -28 -68 -63z"/>
<path d="M1060 471 l-65 -60 65 -65 65 -65 70 61 70 62 -65 -68 -65 -68 65
-59 c36 -32 67 -59 70 -59 3 0 34 28 68 63 l62 62 -134 128 c-74 70 -136 127
-138 127 -2 0 -32 -27 -68 -59z"/>
<path d="M646 339 l-67 -64 65 -65 66 -64 32 29 33 30 -30 -33 -29 -32 54 -58
55 -57 -58 55 -57 54 -63 -59 -62 -60 60 63 59 62 -59 60 c-33 33 -64 60 -70
60 -6 0 -38 -28 -72 -62 l-62 -63 67 -60 66 -60 137 -2 137 -2 69 63 c37 35
66 66 63 67 -3 2 -33 31 -68 64 l-62 59 -32 -29 -33 -30 30 33 29 33 -66 65
-65 66 -67 -63z"/>
<path d="M927 341 c-31 -31 -57 -61 -57 -66 0 -6 27 -37 60 -70 l59 -59 23 20
23 19 -19 -23 -20 -23 60 -62 59 -62 -63 60 -62 60 -63 -63 -62 -63 132 3
c131 3 132 3 165 33 25 23 28 24 10 4 -12 -14 -22 -28 -22 -32 0 -4 55 -7 122
-7 l123 0 -62 62 -62 62 -33 -29 -33 -30 28 31 c15 16 27 32 27 35 0 3 -29 31
-65 63 -58 51 -68 56 -83 44 -15 -12 -16 -11 -3 5 13 16 8 24 -50 83 -35 35
-66 63 -69 63 -3 -1 -31 -27 -63 -58z"/>
<path d="M225 200 l-59 -60 64 -65 65 -65 65 65 65 65 -60 60 c-33 33 -64 60
-70 60 -6 0 -37 -27 -70 -60z"/>
<path d="M1335 200 l-59 -60 64 -65 65 -65 65 65 65 65 -60 60 c-33 33 -64 60
-70 60 -6 0 -37 -27 -70 -60z"/>
<path d="M98 76 c-32 -29 -58 -56 -58 -60 0 -3 55 -6 122 -6 l122 0 -59 60
c-33 33 -62 60 -65 60 -3 -1 -31 -25 -62 -54z"/>
<path d="M365 70 l-59 -60 122 0 c67 0 122 2 122 4 0 6 -109 110 -119 114 -3
1 -33 -25 -66 -58z"/>
<path d="M1475 70 l-59 -60 122 0 c67 0 122 4 122 9 0 7 -114 111 -122 111 -2
0 -30 -27 -63 -60z"/>
</g>
</svg>
