<?xml version="1.0" standalone="no"?>
<!DOCTYPE svg PUBLIC "-//W3C//DTD SVG 20010904//EN"
 "http://www.w3.org/TR/2001/REC-SVG-20010904/DTD/svg10.dtd">
<svg version="1.0" xmlns="http://www.w3.org/2000/svg"
 width="25.000000pt" height="40.000000pt" viewBox="0 0 25.000000 40.000000"
 preserveAspectRatio="xMidYMid meet">

<g transform="translate(0.000000,40.000000) scale(0.100000,-0.100000)"
fill="#000000" stroke="none">
<path d="M0 325 l0 -75 40 0 40 0 0 48 c0 50 11 72 45 90 16 9 6 11 -52 12
l-73 0 0 -75z"/>
<path d="M240 365 c0 -30 -3 -35 -24 -35 -44 0 -56 -10 -56 -46 0 -34 1 -34
45 -34 l45 0 0 75 c0 41 -2 75 -5 75 -3 0 -5 -16 -5 -35z"/>
<path d="M235 210 c-6 -26 -11 -30 -41 -30 l-34 0 0 -90 0 -90 45 0 45 0 0
120 c0 66 -2 120 -4 120 -3 0 -7 -13 -11 -30z"/>
<path d="M0 91 l0 -91 40 0 41 0 -3 88 -3 87 -37 3 -38 3 0 -90z"/>
</g>
</svg>
