<?xml version="1.0" standalone="no"?>
<!DOCTYPE svg PUBLIC "-//W3C//DTD SVG 20010904//EN"
 "http://www.w3.org/TR/2001/REC-SVG-20010904/DTD/svg10.dtd">
<svg version="1.0" xmlns="http://www.w3.org/2000/svg"
 width="41.000000pt" height="40.000000pt" viewBox="0 0 41.000000 40.000000"
 preserveAspectRatio="xMidYMid meet">

<g transform="translate(0.000000,40.000000) scale(0.100000,-0.100000)"
fill="#000000" stroke="none">
<path d="M0 200 l0 -200 58 0 57 1 -33 14 c-48 21 -62 64 -62 185 0 121 14
164 62 185 l33 14 -57 1 -58 0 0 -200z"/>
<path d="M356 386 c18 -8 37 -22 43 -33 9 -15 10 -13 11 15 0 31 -1 32 -42 32
l-43 -1 31 -13z"/>
<path d="M80 340 c-18 -18 -20 -33 -20 -140 0 -107 2 -122 20 -140 18 -18 33
-20 140 -20 161 0 160 -1 160 160 0 107 -2 122 -20 140 -18 18 -33 20 -140 20
-107 0 -122 -2 -140 -20z m267 -26 c8 -22 -18 -37 -36 -20 -7 8 -10 19 -7 25
10 16 36 13 43 -5z m-56 -43 c23 -23 29 -38 29 -71 0 -91 -106 -135 -171 -71
-23 23 -29 38 -29 71 0 91 106 135 171 71z"/>
<path d="M174 244 c-20 -19 -24 -31 -20 -52 15 -61 79 -77 119 -30 24 28 21
55 -8 83 -31 32 -59 32 -91 -1z"/>
<path d="M396 45 c-3 -9 -20 -22 -38 -30 l-33 -14 43 -1 c40 0 42 1 42 30 0
33 -5 38 -14 15z"/>
</g>
</svg>
