<?xml version="1.0" standalone="no"?>
<!DOCTYPE svg PUBLIC "-//W3C//DTD SVG 20010904//EN"
 "http://www.w3.org/TR/2001/REC-SVG-20010904/DTD/svg10.dtd">
<svg version="1.0" xmlns="http://www.w3.org/2000/svg"
 width="24.000000pt" height="24.000000pt" viewBox="0 0 24.000000 24.000000"
 preserveAspectRatio="xMidYMid meet">

<g transform="translate(0.000000,24.000000) scale(0.100000,-0.100000)"
fill="#000000" stroke="none">
<path d="M0 188 l0 -53 18 35 c10 20 32 42 52 52 l35 18 -52 0 -53 0 0 -52z"/>
<path d="M170 222 c20 -10 42 -32 52 -52 l18 -35 0 53 0 52 -52 0 -53 0 35
-18z"/>
<path d="M0 53 l0 -53 53 0 52 0 -35 18 c-20 10 -42 32 -52 52 l-18 35 0 -52z"/>
<path d="M220 67 c-9 -18 -30 -40 -50 -49 l-35 -18 53 0 52 0 0 50 c0 28 -1
50 -2 50 -2 0 -10 -15 -18 -33z"/>
</g>
</svg>
