<?xml version="1.0" standalone="no"?>
<!DOCTYPE svg PUBLIC "-//W3C//DTD SVG 20010904//EN"
 "http://www.w3.org/TR/2001/REC-SVG-20010904/DTD/svg10.dtd">
<svg version="1.0" xmlns="http://www.w3.org/2000/svg"
 width="20.000000pt" height="24.000000pt" viewBox="0 0 20.000000 24.000000"
 preserveAspectRatio="xMidYMid meet">

<g transform="translate(0.000000,24.000000) scale(0.100000,-0.100000)"
fill="#000000" stroke="none">
<path d="M36 228 c4 -7 23 -35 42 -61 l34 -48 -28 -40 c-63 -87 -60 -79 -25
-79 22 0 31 5 31 16 0 9 14 36 32 60 l32 44 -33 46 c-18 26 -30 53 -27 60 4
10 -4 14 -30 14 -25 0 -33 -4 -28 -12z"/>
<path d="M142 195 c54 -74 54 -74 43 -90 -6 -8 -25 -35 -43 -60 l-33 -45 45 0
46 0 0 120 0 120 -46 0 -45 0 33 -45z"/>
<path d="M0 120 c0 -50 1 -90 3 -90 2 0 18 20 36 45 l32 45 -32 45 c-18 25
-34 45 -36 45 -2 0 -3 -40 -3 -90z"/>
</g>
</svg>
