<?xml version="1.0" standalone="no"?>
<!DOCTYPE svg PUBLIC "-//W3C//DTD SVG 20010904//EN"
 "http://www.w3.org/TR/2001/REC-SVG-20010904/DTD/svg10.dtd">
<svg version="1.0" xmlns="http://www.w3.org/2000/svg"
 width="440.000000pt" height="440.000000pt" viewBox="0 0 440.000000 440.000000"
 preserveAspectRatio="xMidYMid meet">

<g transform="translate(0.000000,440.000000) scale(0.100000,-0.100000)"
fill="#000000" stroke="none">
<path d="M1 3368 c1 -685 5 -1003 11 -943 49 493 282 982 633 1331 356 354
838 583 1330 632 60 6 -258 10 -942 11 l-1033 1 1 -1032z"/>
<path d="M2425 4388 c500 -50 987 -284 1343 -646 344 -350 571 -832 620 -1317
6 -60 10 258 11 943 l1 1032 -1032 -1 c-685 -1 -1003 -5 -943 -11z"/>
<path d="M1965 4209 c-225 -29 -446 -94 -650 -194 -470 -229 -833 -631 -1014
-1123 -135 -367 -158 -803 -61 -1185 68 -268 190 -521 359 -742 64 -84 242
-266 331 -338 734 -593 1777 -598 2525 -12 92 72 280 262 347 350 277 366 418
785 418 1238 -1 316 -61 582 -195 864 -302 633 -892 1056 -1595 1143 -99 12
-364 11 -465 -1z m489 -1413 c493 -324 895 -593 894 -597 -2 -6 -1706 -1131
-1808 -1194 -7 -4 -10 387 -10 1195 0 1016 2 1200 14 1193 7 -4 417 -273 910
-597z"/>
<path d="M1 1033 l-1 -1033 1033 1 c684 1 1002 5 942 11 -403 40 -830 215
-1145 467 -95 76 -272 253 -350 351 -260 326 -426 734 -469 1150 -5 53 -9
-300 -10 -947z"/>
<path d="M4386 1973 c-29 -376 -213 -828 -465 -1143 -80 -100 -246 -265 -351
-349 -327 -261 -733 -427 -1150 -470 -53 -5 300 -9 948 -10 l1032 -1 0 1030
c0 567 -2 1030 -4 1030 -1 0 -6 -39 -10 -87z"/>
</g>
</svg>
