<?xml version="1.0" standalone="no"?>
<!DOCTYPE svg PUBLIC "-//W3C//DTD SVG 20010904//EN"
 "http://www.w3.org/TR/2001/REC-SVG-20010904/DTD/svg10.dtd">
<svg version="1.0" xmlns="http://www.w3.org/2000/svg"
 width="98.000000pt" height="52.000000pt" viewBox="0 0 98.000000 52.000000"
 preserveAspectRatio="xMidYMid meet">

<g transform="translate(0.000000,52.000000) scale(0.100000,-0.100000)"
fill="#000000" stroke="none">
<path d="M0 258 c0 -144 4 -258 8 -252 52 60 477 504 482 504 4 0 79 -75 166
-167 87 -93 195 -207 241 -255 l83 -87 0 259 0 260 -490 0 -490 0 0 -262z"/>
<path d="M457 462 c-34 -35 -34 -42 3 -77 l30 -29 30 29 c17 16 30 34 30 40 0
11 -51 65 -61 65 -3 0 -17 -13 -32 -28z"/>
<path d="M381 376 l-35 -36 35 -36 34 -35 28 31 c15 16 27 35 27 40 0 5 -12
24 -27 40 l-28 31 -34 -35z"/>
<path d="M537 374 l-29 -35 27 -36 28 -35 36 36 36 36 -35 35 -35 35 -28 -36z"/>
<path d="M295 290 l-29 -30 25 -27 c13 -16 27 -32 31 -37 5 -6 23 4 43 24 l35
34 -32 33 c-18 18 -35 33 -38 33 -3 0 -19 -13 -35 -30z"/>
<path d="M457 292 c-34 -35 -34 -42 3 -77 l30 -29 30 29 c17 16 30 34 30 40 0
11 -51 65 -61 65 -3 0 -17 -13 -32 -28z"/>
<path d="M612 287 l-32 -33 35 -34 c20 -20 38 -30 43 -24 4 5 18 21 31 37 l25
27 -29 30 c-16 17 -32 30 -35 30 -3 0 -20 -15 -38 -33z"/>
<path d="M221 206 l-32 -33 26 -32 c34 -39 46 -39 78 3 l26 33 -33 32 -32 31
-33 -34z"/>
<path d="M376 204 l-29 -36 32 -31 31 -31 35 34 35 34 -32 33 c-18 18 -34 33
-37 33 -4 0 -19 -16 -35 -36z"/>
<path d="M534 204 l-27 -35 31 -32 32 -31 30 29 c16 16 30 32 30 36 0 11 -51
69 -60 69 -5 0 -21 -16 -36 -36z"/>
<path d="M693 208 l-31 -33 27 -33 c15 -17 32 -32 37 -32 6 0 23 14 39 30 l29
30 -35 35 -35 35 -31 -32z"/>
<path d="M140 125 l-34 -35 35 -35 35 -35 34 35 34 35 -35 35 -35 35 -34 -35z"/>
<path d="M300 125 l-34 -35 35 -35 35 -35 33 34 33 34 -33 37 -34 36 -35 -36z"/>
<path d="M457 124 l-28 -33 26 -36 c15 -19 30 -35 34 -35 3 0 19 16 35 36 l29
36 -34 33 -34 33 -28 -34z"/>
<path d="M612 124 l-32 -38 32 -33 32 -33 35 35 36 35 -36 36 -36 36 -31 -38z"/>
<path d="M770 125 l-34 -35 35 -35 35 -35 34 35 34 35 -35 35 -35 35 -34 -35z"/>
<path d="M70 45 l-23 -25 53 0 53 0 -23 25 c-13 14 -26 25 -30 25 -4 0 -17
-11 -30 -25z"/>
<path d="M220 45 l-23 -25 53 0 53 0 -23 25 c-13 14 -26 25 -30 25 -4 0 -17
-11 -30 -25z"/>
<path d="M380 45 l-23 -25 53 0 53 0 -23 25 c-13 14 -26 25 -30 25 -4 0 -17
-11 -30 -25z"/>
<path d="M540 45 l-23 -25 53 0 53 0 -23 25 c-13 14 -26 25 -30 25 -4 0 -17
-11 -30 -25z"/>
<path d="M696 45 l-16 -25 45 0 c49 0 55 8 27 33 -25 23 -37 21 -56 -8z"/>
<path d="M850 45 l-23 -25 53 0 53 0 -23 25 c-13 14 -26 25 -30 25 -4 0 -17
-11 -30 -25z"/>
</g>
</svg>
