<?xml version="1.0" standalone="no"?>
<!DOCTYPE svg PUBLIC "-//W3C//DTD SVG 20010904//EN"
 "http://www.w3.org/TR/2001/REC-SVG-20010904/DTD/svg10.dtd">
<svg version="1.0" xmlns="http://www.w3.org/2000/svg"
 width="152.000000pt" height="80.000000pt" viewBox="0 0 152.000000 80.000000"
 preserveAspectRatio="xMidYMid meet">

<g transform="translate(0.000000,80.000000) scale(0.100000,-0.100000)"
fill="#000000" stroke="none">
<path d="M0 400 l0 -400 760 0 760 0 0 400 0 400 -760 0 -760 0 0 -400z m164
150 c44 -16 58 -61 54 -165 -3 -83 -6 -96 -27 -119 -18 -19 -35 -26 -62 -26
-51 0 -67 8 -84 41 -22 41 -21 207 1 237 26 38 71 50 118 32z m1020 0 c44 -16
58 -61 54 -165 -3 -83 -6 -96 -27 -119 -18 -19 -35 -26 -62 -26 -51 0 -67 8
-84 41 -22 41 -21 207 1 237 26 38 71 50 118 32z m-784 -155 c0 -148 -1 -155
-20 -155 -19 0 -20 7 -20 131 0 116 -2 130 -16 125 -48 -18 -66 -19 -62 -1 3
16 75 53 106 54 9 1 12 -36 12 -154z m370 -30 c0 -158 -2 -185 -15 -185 -13 0
-15 27 -15 185 0 158 2 185 15 185 13 0 15 -27 15 -185z m720 170 c0 -12 -14
-15 -65 -15 -48 0 -65 -3 -65 -14 0 -7 -3 -26 -6 -42 -6 -29 -5 -29 47 -29 45
0 54 -4 73 -28 32 -43 28 -113 -8 -144 -30 -26 -99 -31 -127 -10 -15 11 -39
49 -39 61 0 16 40 3 45 -14 3 -11 18 -23 31 -26 58 -15 98 39 73 98 -14 34
-48 45 -89 28 -41 -17 -50 -7 -44 53 10 103 4 97 94 97 64 0 80 -3 80 -15z"/>
<path d="M78 498 c-8 -14 -13 -57 -13 -104 0 -67 4 -86 19 -103 25 -27 61 -27
80 1 19 26 22 177 6 209 -16 28 -75 26 -92 -3z"/>
<path d="M1098 498 c-8 -14 -13 -57 -13 -104 0 -67 4 -86 19 -103 25 -27 61
-27 80 1 19 26 22 177 6 209 -16 28 -75 26 -92 -3z"/>
</g>
</svg>
