<?xml version="1.0" standalone="no"?>
<!DOCTYPE svg PUBLIC "-//W3C//DTD SVG 20010904//EN"
 "http://www.w3.org/TR/2001/REC-SVG-20010904/DTD/svg10.dtd">
<svg version="1.0" xmlns="http://www.w3.org/2000/svg"
 width="40.000000pt" height="40.000000pt" viewBox="0 0 40.000000 40.000000"
 preserveAspectRatio="xMidYMid meet">

<g transform="translate(0.000000,40.000000) scale(0.100000,-0.100000)"
fill="#000000" stroke="none">
<path d="M1 318 c1 -76 2 -80 12 -48 14 44 77 107 119 119 28 8 20 9 -49 10
l-83 1 1 -82z"/>
<path d="M262 390 c49 -15 90 -52 114 -104 l24 -51 0 83 0 82 -82 -1 c-60 0
-75 -3 -56 -9z"/>
<path d="M168 323 c-39 -6 -85 -53 -93 -95 -7 -39 10 -88 33 -96 11 -3 12 7 7
51 -7 52 -5 58 20 81 37 34 87 35 120 1 48 -47 23 -145 -35 -145 -27 0 -34 22
-21 63 13 37 6 67 -15 67 -18 0 -43 -38 -37 -58 2 -9 -3 -48 -11 -87 -8 -38
-12 -73 -10 -77 3 -4 -1 -8 -8 -8 -23 0 -78 57 -98 102 l-20 43 0 -82 0 -83
83 1 c45 0 76 3 70 6 -10 3 -9 11 2 33 8 16 15 35 15 43 0 11 10 13 45 10 39
-5 47 -2 74 24 37 38 48 88 28 136 -23 54 -79 81 -149 70z"/>
<path d="M370 107 c-21 -43 -34 -57 -79 -79 l-55 -28 82 0 82 0 0 80 c0 44 -1
80 -2 79 -2 0 -14 -24 -28 -52z"/>
</g>
</svg>
