<?xml version="1.0" standalone="no"?>
<!DOCTYPE svg PUBLIC "-//W3C//DTD SVG 20010904//EN"
 "http://www.w3.org/TR/2001/REC-SVG-20010904/DTD/svg10.dtd">
<svg version="1.0" xmlns="http://www.w3.org/2000/svg"
 width="60.000000pt" height="16.000000pt" viewBox="0 0 60.000000 16.000000"
 preserveAspectRatio="xMidYMid meet">

<g transform="translate(0.000000,16.000000) scale(0.100000,-0.100000)"
fill="#000000" stroke="none">
<path d="M0 125 l0 -35 250 0 c138 0 250 3 250 8 0 4 -12 19 -25 35 l-24 27
-226 0 -225 0 0 -35z"/>
<path d="M490 156 c0 -6 92 -66 102 -66 4 0 8 16 8 35 l0 35 -55 0 c-30 0 -55
-2 -55 -4z"/>
<path d="M0 35 l0 -35 226 0 c244 0 233 -2 265 53 9 16 -5 17 -241 17 l-250 0
0 -35z"/>
<path d="M537 39 c-26 -17 -47 -33 -47 -35 0 -2 25 -4 55 -4 l55 0 0 35 c0 19
-4 35 -8 35 -5 0 -30 -14 -55 -31z"/>
</g>
</svg>
