<?xml version="1.0" standalone="no"?>
<!DOCTYPE svg PUBLIC "-//W3C//DTD SVG 20010904//EN"
 "http://www.w3.org/TR/2001/REC-SVG-20010904/DTD/svg10.dtd">
<svg version="1.0" xmlns="http://www.w3.org/2000/svg"
 width="40.000000pt" height="33.000000pt" viewBox="0 0 40.000000 33.000000"
 preserveAspectRatio="xMidYMid meet">

<g transform="translate(0.000000,33.000000) scale(0.100000,-0.100000)"
fill="#000000" stroke="none">
<path d="M0 165 l0 -165 200 0 200 0 0 165 0 165 -52 0 c-43 -1 -49 -3 -35
-11 11 -6 30 -9 43 -6 27 5 30 -2 12 -22 -11 -11 -10 -13 5 -8 21 8 23 -6 3
-22 -8 -7 -18 -31 -21 -54 -21 -122 -109 -198 -232 -197 -56 1 -144 27 -98 29
26 2 105 39 84 40 -25 1 -67 41 -51 48 9 3 5 12 -13 28 -25 24 -34 55 -15 55
7 0 7 6 0 19 -11 21 -14 81 -4 81 4 0 21 -13 40 -29 30 -27 88 -51 122 -51 7
0 12 12 12 29 0 20 9 36 26 50 l27 21 -127 0 -126 0 0 -165z"/>
</g>
</svg>
